<?xml version="1.0" encoding="utf-8"?>
<!-- Generator: Adobe Illustrator 24.0.1, SVG Export Plug-In . SVG Version: 6.00 Build 0)  -->
<svg version="1.1" id="Group_13" xmlns="http://www.w3.org/2000/svg" xmlns:xlink="http://www.w3.org/1999/xlink" x="0px" y="0px"
	 viewBox="0 0 270 270" style="enable-background:new 0 0 270 270;" xml:space="preserve">
<style type="text/css">
	.st0{opacity:0.511;fill:#D5D5D5;enable-background:new    ;}
	.st1{opacity:0.329;fill:#9FC69D;enable-background:new    ;}
</style>
<g>
	<ellipse id="Ellipse_51" class="st0" cx="238.8" cy="121" rx="3.4" ry="3.4"/>
	<ellipse id="Ellipse_52" class="st0" cx="252.1" cy="121" rx="3.4" ry="3.4"/>
	<ellipse id="Ellipse_53" class="st0" cx="265.4" cy="121" rx="3.4" ry="3.4"/>
</g>
<g>
	<ellipse id="Ellipse_108" class="st0" cx="238.8" cy="108.1" rx="3.4" ry="3.4"/>
	<ellipse id="Ellipse_109" class="st0" cx="252.1" cy="108.1" rx="3.4" ry="3.4"/>
	<ellipse id="Ellipse_110" class="st0" cx="265.4" cy="108.1" rx="3.4" ry="3.4"/>
</g>
<g>
	<ellipse id="Ellipse_113" class="st0" cx="238.8" cy="95.2" rx="3.4" ry="3.4"/>
	<ellipse id="Ellipse_114" class="st0" cx="252.1" cy="95.2" rx="3.4" ry="3.4"/>
	<ellipse id="Ellipse_115" class="st0" cx="265.4" cy="95.2" rx="3.4" ry="3.4"/>
</g>
<g>
	<ellipse id="Ellipse_118" class="st0" cx="238.8" cy="82.3" rx="3.4" ry="3.4"/>
	<ellipse id="Ellipse_119" class="st0" cx="252.1" cy="82.3" rx="3.4" ry="3.4"/>
	<ellipse id="Ellipse_120" class="st0" cx="265.4" cy="82.3" rx="3.4" ry="3.4"/>
</g>
<g>
	<ellipse id="Ellipse_123" class="st0" cx="238.8" cy="69.4" rx="3.4" ry="3.4"/>
	<ellipse id="Ellipse_124" class="st0" cx="252.1" cy="69.4" rx="3.4" ry="3.4"/>
	<ellipse id="Ellipse_125" class="st0" cx="265.4" cy="69.4" rx="3.4" ry="3.4"/>
</g>
<g>
	<ellipse id="Ellipse_128" class="st0" cx="238.8" cy="56.5" rx="3.4" ry="3.4"/>
	<ellipse id="Ellipse_129" class="st0" cx="252.1" cy="56.5" rx="3.4" ry="3.4"/>
	<ellipse id="Ellipse_130" class="st0" cx="265.4" cy="56.5" rx="3.4" ry="3.4"/>
</g>
<g>
	<ellipse id="Ellipse_133" class="st0" cx="238.8" cy="43.6" rx="3.4" ry="3.4"/>
	<ellipse id="Ellipse_134" class="st0" cx="252.1" cy="43.6" rx="3.4" ry="3.4"/>
	<ellipse id="Ellipse_135" class="st0" cx="265.4" cy="43.6" rx="3.4" ry="3.4"/>
</g>
<g>
	<ellipse id="Ellipse_136" class="st0" cx="212.1" cy="30.7" rx="3.4" ry="3.4"/>
	<ellipse id="Ellipse_137" class="st0" cx="225.4" cy="30.7" rx="3.4" ry="3.4"/>
	<ellipse id="Ellipse_138" class="st0" cx="238.8" cy="30.7" rx="3.4" ry="3.4"/>
	<ellipse id="Ellipse_139" class="st0" cx="252.1" cy="30.7" rx="3.4" ry="3.4"/>
	<ellipse id="Ellipse_140" class="st0" cx="265.4" cy="30.7" rx="3.4" ry="3.4"/>
	<ellipse id="Ellipse_196" class="st0" cx="146.2" cy="30.7" rx="3.4" ry="3.4"/>
	<ellipse id="Ellipse_197" class="st0" cx="159.5" cy="30.7" rx="3.4" ry="3.4"/>
	<ellipse id="Ellipse_198" class="st0" cx="172.8" cy="30.7" rx="3.4" ry="3.4"/>
	<ellipse id="Ellipse_199" class="st0" cx="186.2" cy="30.7" rx="3.4" ry="3.4"/>
	<ellipse id="Ellipse_200" class="st0" cx="199.5" cy="30.7" rx="3.4" ry="3.4"/>
</g>
<g>
	<ellipse id="Ellipse_141" class="st0" cx="212.1" cy="17.8" rx="3.4" ry="3.4"/>
	<ellipse id="Ellipse_142" class="st0" cx="225.4" cy="17.8" rx="3.4" ry="3.4"/>
	<ellipse id="Ellipse_143" class="st0" cx="238.8" cy="17.8" rx="3.4" ry="3.4"/>
	<ellipse id="Ellipse_144" class="st0" cx="252.1" cy="17.8" rx="3.4" ry="3.4"/>
	<ellipse id="Ellipse_145" class="st0" cx="265.4" cy="17.8" rx="3.4" ry="3.4"/>
	<ellipse id="Ellipse_201" class="st0" cx="146.2" cy="17.8" rx="3.4" ry="3.4"/>
	<ellipse id="Ellipse_202" class="st0" cx="159.5" cy="17.8" rx="3.4" ry="3.4"/>
	<ellipse id="Ellipse_203" class="st0" cx="172.8" cy="17.8" rx="3.4" ry="3.4"/>
	<ellipse id="Ellipse_204" class="st0" cx="186.2" cy="17.8" rx="3.4" ry="3.4"/>
	<ellipse id="Ellipse_205" class="st0" cx="199.5" cy="17.8" rx="3.4" ry="3.4"/>
</g>
<g>
	<ellipse id="Ellipse_146" class="st0" cx="212.1" cy="4.8" rx="3.4" ry="3.4"/>
	<ellipse id="Ellipse_147" class="st0" cx="225.4" cy="4.8" rx="3.4" ry="3.4"/>
	<ellipse id="Ellipse_148" class="st0" cx="238.8" cy="4.8" rx="3.4" ry="3.4"/>
	<ellipse id="Ellipse_149" class="st0" cx="252.1" cy="4.8" rx="3.4" ry="3.4"/>
	<ellipse id="Ellipse_150" class="st0" cx="265.4" cy="4.8" rx="3.4" ry="3.4"/>
	<ellipse id="Ellipse_206" class="st0" cx="146.2" cy="4.8" rx="3.4" ry="3.4"/>
	<ellipse id="Ellipse_207" class="st0" cx="159.5" cy="4.8" rx="3.4" ry="3.4"/>
	<ellipse id="Ellipse_208" class="st0" cx="172.8" cy="4.8" rx="3.4" ry="3.4"/>
	<ellipse id="Ellipse_209" class="st0" cx="186.2" cy="4.8" rx="3.4" ry="3.4"/>
	<ellipse id="Ellipse_210" class="st0" cx="199.5" cy="4.8" rx="3.4" ry="3.4"/>
</g>
<polygon class="st1" points="33.5,236.6 33.5,140.6 -0.1,140.6 -0.1,269.9 129.2,269.9 129.2,236.6 "/>
</svg>
