<?xml version="1.0" encoding="utf-8"?>
<!-- Generator: Adobe Illustrator 23.0.3, SVG Export Plug-In . SVG Version: 6.00 Build 0)  -->
<svg version="1.1" id="Layer_1" xmlns="http://www.w3.org/2000/svg" xmlns:xlink="http://www.w3.org/1999/xlink" x="0px" y="0px"
	 viewBox="0 0 782 1077" style="enable-background:new 0 0 782 1077;" xml:space="preserve">
<style type="text/css">
	.st0{clip-path:url(#SVGID_2_);}
	.st1{opacity:0.14;fill:#C9C9C9;enable-background:new    ;}
	.st2{fill:#F0C298;}
	.st3{fill:#E5B691;}
	.st4{fill:#FFE2CC;}
	.st5{opacity:0.37;fill:#ED8866;enable-background:new    ;}
	.st6{fill:#2F373B;}
	.st7{opacity:0.43;fill:#ED8866;enable-background:new    ;}
	.st8{opacity:0.5;fill:#ED8866;enable-background:new    ;}
	.st9{opacity:0.73;fill:#753B29;enable-background:new    ;}
	.st10{opacity:0.3;fill:#ED8866;enable-background:new    ;}
	.st11{opacity:0.82;fill:#DD9158;enable-background:new    ;}
	.st12{opacity:0.64;fill:#DD9158;enable-background:new    ;}
	.st13{fill:#22242B;}
	.st14{fill:#292B33;}
	.st15{fill:#FFFFFF;}
	.st16{fill:#C9C9C9;}
	.st17{fill:#753B29;}
	.st18{fill:#D6AA3E;}
	.st19{fill:#DEB53E;}
	.st20{opacity:0.74;fill:#E9535C;enable-background:new    ;}
	.st21{fill:#7AA078;}
	.st22{fill:#F4EDC9;}
	.st23{fill:#638E61;}
	.st24{fill:none;stroke:#633F27;stroke-width:3;stroke-miterlimit:10;}
</style>
<g>
	<defs>
		<rect id="SVGID_1_" width="782" height="1077"/>
	</defs>
	<clipPath id="SVGID_2_">
		<use xlink:href="#SVGID_1_"  style="overflow:visible;"/>
	</clipPath>
	<g id="Artboard_1" class="st0">
		<g id="Group_38" transform="translate(-991 -178)">
			<path id="Path_39" class="st1" d="M1621.5,978.7l24.5-13.9c-0.3-2.4-1.5-4.6-3.5-6c-3-2.2-7.2-2.7-10.9-2.8
				c-5.9-0.2-11.7,0.8-17.5,1.4c0,0,0.1,0.1,0.1,0.1l-13.9,7.9l-14.5,7l-5.3-0.9L1416,1047l121.6-64.8l-6.3-1.3l16.7-11.8l1.6-0.9
				c-5.2-1.5-9.8-4.1-14.6-6.4c-4.3-2.1-9-4.1-14-4.3c0.5,0.2,1,0.3,1.6,0.5l-26.6,15.6l-3.4-0.7l-246.2,90.8l-29.7-0.5
				c-56.5,48.1-37.4,18.9-0.8-21l1-0.4l0.6-15.6l-20-3.3l-12.4,2.2l-1.4,12.7l5.1,3.3l-53.7,35.7c-0.2,0.4-0.4,0.8-0.5,1.2
				c-6.6-0.3-10.9-0.4-10.9-0.4c-23.6,22.6-43.7,35.2-67.3,57.8c-2.5,2.8-2.4,5.8,0.5,8.6l0,0c0.2,0.2,0.4,0.3,0.6,0.5
				c2.8,2.3,7.6,4.1,13.6,5.3l-0.1,0l52.5,20.1l3.9-1.8l-5.6,2.9l1.7-1c-6.2-0.4-24.4-3.8-31.8-3.6c-4.8,0.2-2.3,3.4-6,3.3
				c-4.4-0.1-25.6-0.3-32.5,1.2c-3.4,0.8,1.7,4-0.9,5.4c-5.8,2.9-17.5,4.3-17.5,4.3c1.5-2.4,10.9-4.9,10.9-4.9
				c-17.3,0.1-23.8,7.1-23.8,7.1c-3.2,2.2,1.1,5.1-3.5,5.9c-41.7,7-18.1,11.5-22.8,19.8c-11.1,19.5,34.4,25.3,34.4,25.3
				c-22.1,9.7,3.3,11.8,3.3,11.8c-1.1-3.2,4.2-6.6,4.2-6.6c6.4,5,27.5,4.4,22.6,3.2c-3.5-1.1-6.9-2.7-9.9-4.7
				c29.7,3.9,58.1,4.2,72,0.9c13.4-3.2,42.9-1.2,45.1-7.6c0.3-0.9,8.3-1.5,14.1-3.2c4.6-1.3,9.7-6.1,9.7-6.1
				c31.9-8.1,21.9-11.7,21.9-11.7c-8.1,7-16,5.8-16,5.8c12.4-5-2.6-6.1,19.8-8.8c4.8-0.6-1.6-3-0.6-4.3c2.1-2.8,18.9-3.9,13-5.3
				c-16.2-3.7-13.5-6.8-16.4-8.6c-3.9-2.5-8.1-4.7-12.3-6.5l0,0l78.4,8.8l0.4-0.3c11.3,2.3,23,2.2,34.3-0.4
				c23.3-5.3,25.9-7.9,41.2-14.3c9.3-3.9,37-20.8,60.5-33.2c15.4-8.1,35.9-13,35.9-13l-5.3-2.1l70.5-33.3l-1.1-0.3l1.2,0l0.3-0.1
				l2.4,0.3c-0.4-0.2-0.8-0.5-1.2-0.7l40.6-11.3l-6.4-7l-15.3-1.2l-34.9,9.3l-7.6,5.6l-1.6,0.6c-1.5,0.1-3,0.2-4.5,0.4l2.4,0.3
				l-45.3,15.5l180.8-126.3L1621.5,978.7z M1346.1,1143.4l9.1-6.4l6.9-2.3L1346.1,1143.4z"/>
			<g id="Group_1" transform="translate(1432.453 179.237)">
				<path id="Path_1" class="st2" d="M199.8,718.3l-2.2,47.1l-26.6,0l1-20.6l-0.8-35.6L199.8,718.3z"/>
				<path id="Path_2" class="st2" d="M85.3,719.6l-2.9,47l26.4,2.9L110,749l4.6-35.3L85.3,719.6z"/>
				<path id="Path_6" class="st3" d="M130.2,152.6l-0.9,99l58.2,0.9l0.9-111L130.2,152.6z"/>
				<path id="Path_7" class="st2" d="M122.2,152.7c0,0,25.9,18.4,35.7,18.4c6.5,0,29.1-7.5,33.5-15.1c6.5-11.2,6.9-18.8,6.9-18.8
					s14.7,1.6,15.5-19.6c0,0-4.1-8.1-2.4-29.3s-52.1-49.7-52.1-49.7l-54.6,44c0,0-5.1,24.8-1.3,41
					C106.6,137.3,119.6,150.1,122.2,152.7z"/>
				<path id="Path_8" class="st4" d="M175.6,113c0,0,6.4-9.1,12.1,0H175.6z"/>
				<path id="Path_9" class="st5" d="M203.3,111.8c0,0-2.4,21.2-5.7,25.3c0,0,16.3,0.8,16.3-20.4L203.3,111.8z"/>
				<path id="Path_10" class="st6" d="M175.2,113.8c0,0,6.4-9.1,12.1,0H175.2z"/>
				<path id="Path_12" class="st7" d="M150.3,110.2c0,0,6.5,13,1.6,22.8c0,0,5.7-1.6,4.9-11.4S150.3,110.2,150.3,110.2z"/>
				<path id="Path_15" class="st8" d="M152.2,137.7h3.6l2.2,1.7l1.8-1.7h4c-1.2,2-3.4,3.3-5.7,3.2
					C153.5,140.8,152.3,137.7,152.2,137.7z"/>
				<path id="Path_16" class="st9" d="M145.4,96.5c0,0-10.2-3.2-17.4,2.2l7.5-0.9l10.2,1.6L145.4,96.5z"/>
				<path id="Path_17" class="st10" d="M144,121.9c-0.6,2.1-8.4,3.3-11.8,2.4s-5.8-3.5-4.8-6.9s3.9-0.4,7.3,0.5
					S144.9,118.4,144,121.9z"/>
				<path id="Path_18" class="st10" d="M175.1,121.6c0.5,2.1,8.3,3.6,11.8,2.8s5.9-3.3,5.1-6.8s-3.9-0.6-7.3,0.3
					S174.2,118.1,175.1,121.6z"/>
				<path id="Path_19" class="st9" d="M173.3,97.2c0,0,10.2-3.2,17.4,2.2l-7.5-0.9l-10.2,1.6L173.3,97.2z"/>
				<ellipse id="Ellipse_1" class="st11" cx="129.7" cy="120.7" rx="0.6" ry="0.6"/>
				<ellipse id="Ellipse_2" class="st12" cx="130.1" cy="125.1" rx="0.6" ry="0.6"/>
				<ellipse id="Ellipse_3" class="st11" cx="133.1" cy="122.7" rx="0.6" ry="0.6"/>
				<ellipse id="Ellipse_4" class="st11" cx="189.9" cy="120.8" rx="0.6" ry="0.6"/>
				<ellipse id="Ellipse_5" class="st12" cx="189.2" cy="125.2" rx="0.6" ry="0.6"/>
				<ellipse id="Ellipse_6" class="st11" cx="186.4" cy="122.5" rx="0.6" ry="0.6"/>
				<path id="Path_20" class="st13" d="M238,411.1l-35.3,314.4l-35.3,0.6l-8.9-277.3l0.1-17.7L238,411.1z"/>
				<path id="Path_21" class="st14" d="M79.4,417.6l2.9,305.3l36.6-3.3l41.1-285.9l2.2-11.9L79.4,417.6z"/>
				<path id="Path_22" d="M68.5,777l2.1-5.7c1.4-3.6,4.4-6.4,8.1-7.6c6.7-2.3,17.8-4.5,27.5,0.7c2.4,1.2,4.3,3.2,5.5,5.6l3.6,7.2
					c0.8,1.6,1.2,3.4,1.2,5.2l-0.1,4l-48.8,0.1l0.1-5.8C67.8,779.4,68,778.2,68.5,777z"/>
				<path id="Path_24" class="st15" d="M174.4,114.2c0,0,6.4-9.1,12.1,0l-3.6,1.6h-4.1L174.4,114.2z"/>
				<ellipse id="Ellipse_8" class="st6" cx="180.8" cy="114.1" rx="3.2" ry="3.2"/>
				<path id="Path_25" class="st16" d="M67.7,785.9l-0.1,4.1l48.8,0.2l0.1-4.1L67.7,785.9z"/>
				<path id="Path_26" d="M210.7,776.6l-2.1-5.7c-1.4-3.6-4.4-6.4-8.1-7.6c-6.7-2.3-17.8-4.5-27.5,0.7c-2.4,1.2-4.3,3.2-5.5,5.6
					l-3.6,7.2c-0.8,1.6-1.2,3.4-1.2,5.2l0.1,4l48.8,0.1l-0.1-5.9C211.4,779,211.1,777.8,210.7,776.6z"/>
				<path id="Path_27" class="st16" d="M211.5,785.4l0.1,4.1l-48.8,0.2l-0.1-4.1L211.5,785.4z"/>
				<path id="Path_28" class="st17" d="M188.1,182c5.1-2.5,10-5.4,14.6-8.8c3.8-2.7,5.7-9.6,19.3-11.5c5-0.7-3.5-8.6-1.5-14.8
					c0.9-2.9,7.4-5.5,5.3-8.3c-9.8-12.9,0.1-10.1-1.4-24.1c0,0,6,0.3,2.7,16.8c0,0,9.9-3.7,0.8-30.5c0,0,2.5-11.1,1.4-15.3
					c-1.4-5.2-5.3-9.2-4.5-11c6.1-13.4-13.3-19.4-17.4-30.1c-4.3-11.1-21.1-20.1-42.7-22.3c0,0,6.8-5.1,11.1-6
					c4.3-0.9-7.3-9-16.7-1.3c0,0,0.9-8.6,5.1-14.5c0,0-17.1-4.3-15.4,22.2c0,0-32.9-3.7-48.8,38.5c-6.7,18-25.5,19-9.4,46.9
					c1.8,3.1-4.1,7.5-4.7,12.8c0,0-4.2,15.9,5.7,22c0,0-2.6-7.9-0.8-13.2c0,0,5.2,6.7,5.2,14.4c0,3.5-6.7,8.3-5.6,10.9
					c2.2,5.4,14.8,12,17.4,13.3c2.2,1.1-2.9,6.7-0.3,8.6c4,2.9,18.4,2.3,22.5,3.6l1.7-21.2c0,0-11.2-11.6-12.8-15.7
					c-1-2.4-7.6-42.9,0.1-59.2l38.5-28.2L191.5,85c-1,6.6,0.8,13.4,4.8,18.7c0.2,0.3-2.9,5-1.5,8.7c1.3,3.4,7.8,7.8,7.9,9.1
					c0.4,3,0-12.4,0-11.7c0,3,5,6.3,10.7,6.7c0,0,0.7,18.7-16.4,18.7c-1.2,2.6-2.3,5.2-3,7.9c-1.5,5.4-2.6,11.7-8.7,16.7L188.1,182z
					"/>
				<path id="Path_29" class="st18" d="M118.8,142.8c-0.5-1.5-0.9-3.1-1-4.7c-0.1-0.5-0.3-1.1-0.4-1.6l-3.2,12.1l5.9,4.5l-0.2-7.4
					C119.3,145,118.9,143.2,118.8,142.8z"/>
				<path id="Path_30" class="st19" d="M202.5,132.9l-3.5,21.3l6.5-3.6l-2.2-17.6c0-0.2-0.2-0.4-0.5-0.4
					C202.7,132.5,202.5,132.7,202.5,132.9z"/>
				<path id="Path_31" class="st20" d="M144.2,147.5l5.1,2.1c5.6,1.1,11.4,1.1,17.1,0l4.7-1.5c0.3-0.1,0.7,0.1,0.8,0.4
					c0.1,0.2,0,0.5-0.2,0.7l-1.5,1.5c-1.4,1.4-3,2.5-4.8,3.3c-5.6,2.4-11.9,1.9-17.1-1.3c-0.7-0.5-1.3-1-1.9-1.6l-2.7-2.8
					c-0.2-0.2-0.2-0.5,0-0.7C143.8,147.5,144,147.5,144.2,147.5z"/>
				<path id="Path_32" class="st2" d="M30.1,368.6l-10.1,91.8l16.8,5.2l24.9-92.6c0,0-1.1-19.5-12.3-23S30.1,368.6,30.1,368.6z"/>
				<path id="Path_33" class="st21" d="M24.4,363.1c12.2-52.7,15-84.3,27.1-137c1.8-6.4,5.3-12.3,10.1-16.9l0,0
					c0.3-0.3,0.6-0.6,0.9-0.8c17.9-15.5,45.1,1.8,39.5,24.8c-6.5,26-23.3,99.3-32.6,136.3C51.2,376.6,24.4,363.1,24.4,363.1z"/>
				<path id="Path_34" class="st22" d="M117.6,425.8c0,0,52.9,29.4,79.3,0s8.8-235,8.8-235L194,203.2c-20.6,27.5-47,24.5-64.6-0.7
					l-8.8-11.7L117.6,425.8z"/>
				<path id="Path_35" class="st2" d="M37.4,465.2l-17.5,31.1l-15.3-0.2L0,487.5L13.7,462l21-15.2L37.4,465.2z"/>
				<path id="Path_36" class="st23" d="M76.4,202.5l53.4-22.3l8.3,280.9l-76.4-38.2L97,305.4L76.4,202.5z"/>
				<g id="Group_2" transform="matrix(0.966, -0.259, 0.259, 0.966, -62.254, 69.657)">
					<g id="Group_3">
						<path id="Path_3" class="st2" d="M267.5,360.8l3.1,100.5l-18.7,4.2l-19.1-102.7c0,0,2.8-21.1,15.3-23.9
							S267.5,360.8,267.5,360.8z"/>
						<path id="Path_4" class="st2" d="M270.3,462.1l11.1,37.2L269.6,511l-10.2-2.8l-9.6-30.1l4-27.9L270.3,462.1z"/>
						<path id="Path_23" class="st24" d="M249.3,460.7c5.7,7.6,15.7,6.7,22.9,1.8"/>
					</g>
					<path id="Path_37" class="st21" d="M273.3,369.6l-14.7,6.3l-32.3-2.9l4.1-130.5l6.8-49.6c0,0,18.3-7.4,25.7,10.8
						s5.9,24.3,7.5,42.2c0.9,10.8-2.4,53.6-2.9,85.9C267.2,344.6,269.2,357.4,273.3,369.6z"/>
				</g>
				<path id="Path_38" class="st23" d="M188.1,182l-2.9,273.2l58.8-41.1L226.3,323l10.3-132L188.1,182z"/>
				<path id="Path_120" class="st4" d="M143.5,113c0,0-6.4-9.1-12.1,0H143.5z"/>
				<path id="Path_121" class="st6" d="M143.9,113.8c0,0-6.4-9.1-12.1,0H143.9z"/>
				<path id="Path_122" class="st15" d="M144.6,114.2c0,0-6.4-9.1-12.1,0l3.6,1.6h4.1L144.6,114.2z"/>
				<ellipse id="Ellipse_215" class="st6" cx="138.2" cy="114.1" rx="3.2" ry="3.2"/>
			</g>
			<path id="Path_118" class="st2" d="M1607.2,296.1c3.2-1.5,6.9-1.8,10.4-0.8c5.6,1.7-10.4,2.5-10.4,2.5V296.1z"/>
			<path id="Path_119" class="st2" d="M1576.8,296.4c-3.3-1.3-6.9-1.5-10.4-0.7c-5.6,1.5,10.4,2.2,10.4,2.2V296.4z"/>
		</g>
	</g>
</g>
</svg>
