<?xml version="1.0" encoding="utf-8"?>
<!-- Generator: Adobe Illustrator 24.0.1, SVG Export Plug-In . SVG Version: 6.00 Build 0)  -->
<svg version="1.1" id="Layer_1" xmlns="http://www.w3.org/2000/svg" xmlns:xlink="http://www.w3.org/1999/xlink" x="0px" y="0px"
	 viewBox="0 0 1191.1 1228.5" style="enable-background:new 0 0 1191.1 1228.5;" xml:space="preserve">
<style type="text/css">
	.st0{clip-path:url(#SVGID_2_);}
	.st1{fill:#FFFFFF;}
	.st2{fill:#DDDDDD;}
	.st3{font-family:'Courier';}
	.st4{font-size:23.9986px;}
	.st5{fill:#F8F8F8;}
	.st6{opacity:0.996;fill:#F8F8F8;enable-background:new    ;}
	.st7{fill:#995F37;}
	.st8{fill:#EAB828;}
	.st9{fill:#FFD136;}
	.st10{fill:#F2C300;}
	.st11{fill:#F9CA1D;}
	.st12{fill:#E5B691;}
	.st13{fill:#F0C298;}
	.st14{fill:#FFE2CC;}
	.st15{opacity:0.37;fill:#ED8866;enable-background:new    ;}
	.st16{fill:#2F373B;}
	.st17{opacity:0.43;fill:#ED8866;enable-background:new    ;}
	.st18{opacity:0.5;fill:#ED8866;enable-background:new    ;}
	.st19{opacity:0.73;fill:#753B29;enable-background:new    ;}
	.st20{opacity:0.3;fill:#ED8866;enable-background:new    ;}
	.st21{opacity:0.82;fill:#DD9158;enable-background:new    ;}
	.st22{opacity:0.64;fill:#DD9158;enable-background:new    ;}
	.st23{fill:#753B29;}
	.st24{fill:#D6AA3E;}
	.st25{fill:#DEB53E;}
	.st26{opacity:0.74;fill:#E9535C;enable-background:new    ;}
	.st27{fill:#7AA078;}
	.st28{fill:#F4EDC9;}
	.st29{fill:#638E61;}
	.st30{fill:none;stroke:#633F27;stroke-width:3.0004;stroke-miterlimit:10.0012;}
	.st31{fill:#C9C9C9;}
	.st32{fill:#EECDAB;}
	.st33{fill:#262A38;}
	.st34{fill:#22242B;}
	.st35{fill:#2E3345;}
	.st36{opacity:0.822;fill:url(#Ellipse_213_1_);enable-background:new    ;}
	.st37{fill:#BFBFBF;}
	.st38{fill:#4B4B4B;}
	.st39{fill:#3C3C3C;}
	.st40{fill:#2F2F2F;}
	.st41{fill:#AFAFAF;}
	.st42{opacity:0.494;fill:#FFFFFF;enable-background:new    ;}
	.st43{font-size:24px;}
</style>
<g>
	<defs>
		<rect id="SVGID_1_" x="5.1" y="7.7" width="1186" height="1185"/>
	</defs>
	<clipPath id="SVGID_2_">
		<use xlink:href="#SVGID_1_"  style="overflow:visible;"/>
	</clipPath>
	<g id="Artboard_2" class="st0">
		<rect x="5.1" y="7.7" class="st1" width="1186" height="1185"/>
		<text transform="matrix(0.9511 -0.309 0.309 0.9511 138.122 336.6295)" class="st2 st3 st4">&lt;div class=“callToAction”&gt;</text>
		<text transform="matrix(0.9511 -0.309 0.309 0.9511 153.5724 384.1794)" class="st2 st3 st4">    &lt;p&gt;Check out these cool projects!&lt;/p&gt;</text>
		<text transform="matrix(0.9511 -0.309 0.309 0.9511 169.0224 431.7295)" class="st2 st3 st4">&lt;/div&gt;</text>
		<g id="Group_33" transform="translate(-760 -170)">
			<path id="Union_2" class="st5" d="M1515.1,1370.8c0,0-29.5,2.4-43.1-30.5c-5.8-14-22.6-15.1-7.8-36.4c1.6-2.4-3.6-5.9-4.1-10
				c-0.5-2-0.7-4-0.7-6.1c-33-17.9-54.8-49.9-54.2-86c0.3-14.1,3.9-28,10.7-40.4c-3.6-17.4-7.1-34.5-13-56.2c0,0,15.3-6.6,29.8-6.5
				l11.9-32.5l-2.1-6.3l4.3-1.8l-5.8-16.4l-0.1,0l0-0.1l-1.1-3.1l1.9,0l37.3-141.8l33.4,2.9l-1.4,132l0.3-0.1l-0.4,6.9l0,0.7
				l7.7,7.6l7.2,0.1l31.2-24.3l-27.1-105.5l35.1-6.5l49.1,122.3l1.4,0.3l-0.6,1.8l0.1,0.2l-0.2,0.1l-10.9,33.8l1.2,0.4l-1.4,5.9
				l7.7,23.5c6.3,2.5,15.2,6,23.9,9c15.5,5.4,19.3,14.2,17.2,21.3c-4.2,14-13.4,35.5-20.7,52.3c2.1,7.9,3.1,16,3,24.1
				c-0.6,34.7-21.7,65-53.3,82.2c-1.2,3.9,3.4,4.9,2.3,12.9c0,0,5.3-0.1,2.6-13c0,0,8.8,3,0.3,23.6c0,0,2.1,8.6,1,11.8
				c-1.3,4-4.9,7-4.2,8.4c5.2,10.5-12.1,14.8-16,23c-4,8.5-19.1,15.2-38.5,16.6c0,0,6.1,4.1,9.9,4.8s-6.6,6.8-14.9,0.7
				c0,0,0.7,6.6,4.4,11.3c-0.7,0.1-1.5,0.2-2.3,0.2C1522.1,1388.4,1513.7,1386.3,1515.1,1370.8z M1574.2,1299.1c0,0,0,0.1-0.1,0.1
				l0.1,0C1574.2,1299.2,1574.2,1299.2,1574.2,1299.1L1574.2,1299.1z"/>
			<path id="Union_1" class="st6" d="M1265.8,1077.1l-60.6-41.3l183.5-8.8l0-0.5l-188.3,8.5l12.8-57.7l152-4.7l6.2-79.9l37.9,0
				l0,78.6l331-10.3l0-69.6l37,0l7.5,68.2l122.6-3.8l15.7,45.8l1.2-0.1l-1.2,0.3l0.2,0.7l-3.1,0.1l-83.6,23l33.9,221.9l-740.5,47.6
				L1265.8,1077.1z M1417.8,1025.7l157.7-7.5l-157.7,7.1L1417.8,1025.7z"/>
		</g>
		<g id="Group_20" transform="translate(591.325 220.88)">
			<path id="Path_42" class="st7" d="M461.2,395.2L449.4,505l-41.2,1.4L407,394L461.2,395.2z"/>
			<path id="Path_43" class="st7" d="M-15,395.2L-3.2,505l41.2,1.4L39.2,394L-15,395.2z"/>
			<path id="Path_44" class="st8" d="M576,431.8h-700.3l-21.9-113.5H597L576,431.8z"/>
			<path id="Path_45" class="st9" d="M508.7,277.7H-52.7l-93.9-297.4h740.3L508.7,277.7z"/>
			<path id="Path_46" class="st10" d="M597.9,320h-745.1l94.1-44.8h561.3L597.9,320z"/>
			<rect id="Rectangle_7" x="213.9" y="-18.1" class="st11" width="29.7" height="293.2"/>
			<rect id="Rectangle_8" x="51.6" y="-16" class="st11" width="29.7" height="293.2"/>
			<rect id="Rectangle_9" x="372.2" y="-16" class="st11" width="29.7" height="293.2"/>
		</g>
		<g id="Group_23" transform="translate(700.817 106.04)">
			<g id="Group_21" transform="translate(0)">
				<path id="Path_6" class="st12" d="M35.9,126.2l-0.9,99.1l58.2,0.9l0.9-111L35.9,126.2z"/>
				<path id="Path_7" class="st13" d="M27.9,126.3c0,0,26,18.4,35.7,18.4c6.5,0,29.1-7.5,33.5-15.1c6.5-11.2,6.9-18.8,6.9-18.8
					s14.7,1.6,15.5-19.6c0,0-4.1-8.1-2.4-29.3c1.6-21.2-52.2-49.7-52.2-49.7l-54.6,44c0,0-5.1,24.8-1.3,41
					C12.2,111,25.3,123.7,27.9,126.3z"/>
				<path id="Path_8" class="st14" d="M80.4,86.4c0,0,6.9-8.6,12.9,0H80.4z"/>
				<path id="Path_9" class="st15" d="M109,85.5c0,0-2.4,21.2-5.7,25.3c0,0,16.3,0.8,16.3-20.4L109,85.5z"/>
				<path id="Path_10" class="st16" d="M80.1,87.2c0,0,6.9-8.6,12.9,0H80.1z"/>
				<path id="Path_11" class="st14" d="M36.3,86.8c0,0,6.9-8.6,12.9,0H36.3z"/>
				<path id="Path_12" class="st17" d="M56,83.8c0,0,6.5,13,1.6,22.8c0,0,5.7-1.6,4.9-11.4S56,83.8,56,83.8z"/>
				<path id="Path_13" class="st16" d="M36.7,87.6c0,0,6.9-8.6,12.9,0H36.7z"/>
				<path id="Path_14" class="st1" d="M37.3,88c0,0,6.9-8.6,12.9,0l-3.8,1.6H42L37.3,88z"/>
				<path id="Path_15" class="st18" d="M57.9,111.3h3.6l2.2,1.7l1.8-1.7h4c-1.2,2-3.4,3.3-5.7,3.2C59.1,114.5,58,111.3,57.9,111.3z"
					/>
				<path id="Path_16" class="st19" d="M51.1,70.2c0,0-10.2-3.2-17.4,2.2l7.5-0.9L51.3,73L51.1,70.2z"/>
				<path id="Path_17" class="st20" d="M49.7,95.5c-0.6,2.1-8.4,3.3-11.8,2.4S32,94.5,33,91s3.9-0.4,7.3,0.5
					C43.8,92.4,50.6,92.1,49.7,95.5z"/>
				<path id="Path_18" class="st20" d="M80.7,95.2c0.5,2.1,8.3,3.6,11.8,2.8s5.9-3.3,5.1-6.8c-0.8-3.5-3.9-0.6-7.3,0.3
					S79.9,91.8,80.7,95.2z"/>
				<path id="Path_19" class="st19" d="M79,70.9c0,0,10.2-3.2,17.4,2.2l-7.5-0.9l-10.2,1.6L79,70.9z"/>
				<ellipse id="Ellipse_1" class="st21" cx="35.3" cy="94.4" rx="0.6" ry="0.6"/>
				<ellipse id="Ellipse_2" class="st22" cx="35.7" cy="98.8" rx="0.6" ry="0.6"/>
				<ellipse id="Ellipse_3" class="st21" cx="38.8" cy="96.3" rx="0.6" ry="0.6"/>
				<ellipse id="Ellipse_4" class="st21" cx="95.6" cy="94.5" rx="0.6" ry="0.6"/>
				<ellipse id="Ellipse_5" class="st22" cx="94.9" cy="98.8" rx="0.6" ry="0.6"/>
				<ellipse id="Ellipse_6" class="st21" cx="92.1" cy="96.2" rx="0.6" ry="0.6"/>
				<ellipse id="Ellipse_7" class="st16" cx="44.2" cy="87.9" rx="3" ry="3"/>
				<path id="Path_24" class="st1" d="M79.4,87.6c0,0,6.9-8.6,12.9,0l-3.8,1.6h-4.3L79.4,87.6z"/>
				<ellipse id="Ellipse_8" class="st16" cx="86.1" cy="87.6" rx="3" ry="3"/>
				<path id="Path_28" class="st23" d="M93.8,155.6c5.1-2.5,10-5.4,14.6-8.8c3.8-2.7,5.7-9.6,19.4-11.5c5-0.7-3.5-8.6-1.5-14.8
					c0.9-2.9,7.4-5.5,5.3-8.3c-9.8-12.9,0.1-10.1-1.4-24.1c0,0,6,0.3,2.7,16.8c0,0,9.9-3.7,0.8-30.5c0,0,2.5-11.1,1.4-15.3
					c-1.4-5.2-5.3-9.2-4.5-11c6.1-13.4-13.3-19.4-17.4-30.1C108.7,6.9,91.9-2.1,70.2-4.3c0,0,6.8-5.1,11.1-6s-7.3-9-16.7-1.3
					c0,0,0.9-8.6,5.1-14.5c0,0-17.1-4.3-15.4,22.3c0,0-32.9-3.7-48.8,38.5c-6.7,18-25.5,19-9.4,46.9C-2,84.6-7.9,89-8.5,94.3
					c0,0-4.2,15.9,5.7,22c0,0-2.7-8-0.8-13.2c0,0,5.2,6.7,5.2,14.4c0,3.5-6.7,8.3-5.6,10.9c2.2,5.4,14.8,12,17.4,13.3
					c2.2,1.1-2.9,6.7-0.3,8.6c4,2.9,18.4,2.3,22.5,3.6l1.7-21.2c0,0-11.2-11.6-12.8-15.7c-1-2.4-7.6-43,0.1-59.2L63,29.5l34.2,29.1
					c-1,6.6,0.8,13.4,4.8,18.7c0.2,0.3-2.9,5-1.5,8.7c1.3,3.4,7.8,7.8,8,9.1c0.4,3,0-12.4,0-11.7c0,3,5,6.3,10.7,6.7
					c0,0,0.7,18.7-16.4,18.7c-1.2,2.6-2.3,5.2-3,8c-1.5,5.4-2.6,11.7-8.7,16.7L93.8,155.6z"/>
				<path id="Path_29" class="st24" d="M24.5,116.5c-0.5-1.5-0.9-3.1-1-4.7c-0.1-0.5-0.3-1.1-0.4-1.6l-3.2,12.1l5.9,4.5l-0.2-7.4
					C24.9,118.6,24.6,116.8,24.5,116.5z"/>
				<path id="Path_30" class="st25" d="M108.2,106.5l-3.5,21.3l6.5-3.6l-2.2-17.6c0-0.2-0.3-0.4-0.5-0.3
					C108.4,106.2,108.2,106.3,108.2,106.5z"/>
				<path id="Path_31" class="st26" d="M49.8,121.2l5.1,2.1c5.6,1.1,11.4,1.1,17.1,0l4.7-1.5c0.3-0.1,0.7,0.1,0.8,0.4
					c0.1,0.2,0,0.5-0.2,0.7l-1.5,1.5c-1.4,1.4-3,2.5-4.8,3.3c-5.6,2.4-11.9,1.9-17.1-1.3c-0.7-0.5-1.3-1-1.9-1.6l-2.7-2.8
					c-0.2-0.2-0.2-0.5,0-0.7C49.4,121.2,49.6,121.1,49.8,121.2z"/>
				<g id="Group_19" transform="translate(0 217.57) rotate(-22)">
					<g id="Group_18" transform="matrix(0.438, -0.899, 0.899, 0.438, 0, 167.006)">
						<path id="Path_32" class="st13" d="M25.4-118.2L15.4-26.3l16.8,5.2L57-113.8c0,0-1.1-19.5-12.3-23S25.4-118.2,25.4-118.2z"/>
						<path id="Path_35" class="st13" d="M32.7-21.5L15.2,9.6L-0.1,9.4l-4.6-8.5L9-24.7l21-15.2L32.7-21.5z"/>
					</g>
					<path id="Path_33" class="st27" d="M-115.3,82.5c31.8-43.8,46.8-71.8,78.6-115.6c4.2-5.2,9.6-9.2,15.9-11.6l0,0
						c0.4-0.1,0.8-0.3,1.2-0.4C2.8-52.4,21.2-25.8,7-6.9C-9.2,14.6-53.3,75.5-76.4,106C-95.9,105.3-115.3,82.5-115.3,82.5z"/>
				</g>
				<path id="Path_34" class="st28" d="M23.2,369.9c0,0,52.9,25.7,79.3,0c26.4-25.7,8.8-205.4,8.8-205.4l-11.8,10.9
					c-20.6,24-47,21.4-64.7-0.6l-8.8-10.3L23.2,369.9z"/>
				<path id="Path_36" class="st29" d="M-17.9,176.2l53.4-22.3l8.3,280.9l-76.4-38.2L2.7,279.1L-17.9,176.2z"/>
				<g id="Group_2" transform="translate(92.977 310.314) rotate(-40)">
					<g id="Group_3" transform="translate(160.061 133.113) rotate(130)">
						<path id="Path_3" class="st13" d="M34.9,146.4l2.9,91.8L20.7,242L3.2,148.2c0,0,2.6-19.3,14-21.8S34.9,146.4,34.9,146.4z"/>
						<path id="Path_4" class="st13" d="M33.7,237.4l24.9,25.3l-4.4,14.6l-9.4,2.1l-20.6-20.1l-8.7-24.2L33.7,237.4z"/>
						<path id="Path_23" class="st30" d="M18.3,237.5c5.2,6.9,14.4,6.1,20.9,1.6"/>
					</g>
					<path id="Path_37" class="st27" d="M13.9,68.9l14.2-37.1l30-1.3l21.2-78.7l11.4-1.3l29.9-34.6c0,0,17.7,3.4,14.3,21.1
						s-4.3,22.8-12,37.2c-3.5,6.6-24.6,69-39,98c-4.2,8.5-14.9,14.3-32.5,8.2S13.9,68.9,13.9,68.9z"/>
				</g>
				<g id="Group_22" transform="translate(88.041 362.07)">
					<g id="Group_34" transform="translate(149.3 310.507) rotate(-164)">
						<path id="Path_61" class="st31" d="M196.5-13.9c0,0-15-35.3-49.4-33.2c-32,1.9-28.1,24-28.1,24l76.4,23.7L196.5-13.9z"/>
						<path id="Path_62" d="M187.4,9.7c0,0,2.3-5,4.6-7.3c4.1-5.7,4.5-7.6,2.6-11.4c-5.3-10.3-19.8-24.2-34.8-29.3
							c-18-6.1-55.8,9.4-35,27.5c4,3.9,31,20.1,31,20.1L187.4,9.7z"/>
					</g>
					<path id="Path_112" class="st32" d="M10.1,224.5l-11.9,34.6l-25.7-5.4l5.4-34.8L10.1,224.5z"/>
					<path id="Path_113" class="st32" d="M-78.8,243l6.4,39.4l16.1,5.2l11.2-7.7l-1-41.2L-78.8,243z"/>
					<path id="Path_114" d="M-95.1,299.8l3-8c2-5.1,6.2-9,11.4-10.7c9.4-3.2,24.8-6.3,38.5,0.9c3.3,1.7,6,4.5,7.7,7.8l5,10.1
						c1.1,2.3,1.7,4.7,1.6,7.3l-0.1,5.6l-68.3,0.1l0.2-8.2C-96.1,303.1-95.7,301.4-95.1,299.8z"/>
					<path id="Path_115" class="st31" d="M-96.2,312.2l-0.1,5.8l68.3,0.2l0.1-5.8L-96.2,312.2z"/>
					<path id="Path_57" class="st33" d="M-44.9,63.4l33.6-37l-63.2-13.1l-27.8-18.6L-124,62.1L-44.9,63.4z"/>
					<path id="Path_59" class="st34" d="M-21.7,22.9L-30.2,51L8.1,86.7l64.4-13.6L58.1,18.3L-21.7,22.9z"/>
					<path id="Path_60" class="st33" d="M71.9,70.5l-58.4,160l-39.1-9.1L12.7,60.6l38.3-10L71.9,70.5z"/>
					<path id="Path_58" class="st35" d="M-122.8,58l39.8,188.5l37.4-3l1-180.7l-36-17.9L-122.8,58z"/>
				</g>
				<path id="Path_38" class="st29" d="M93.8,155.6l-2.9,256l58.8-23.8L132,296.7l10.3-132L93.8,155.6z"/>
			</g>
			
				<radialGradient id="Ellipse_213_1_" cx="-463.7269" cy="855.0318" r="0.5681" gradientTransform="matrix(242.8607 4.1416 4.1416 -242.8607 109136.7422 209818.6875)" gradientUnits="userSpaceOnUse">
				<stop  offset="0" style="stop-color:#FFF6D0"/>
				<stop  offset="1" style="stop-color:#FFF3E0;stop-opacity:1.200000e-02"/>
			</radialGradient>
			<circle id="Ellipse_213" class="st36" cx="56.9" cy="212.3" r="128.5"/>
			<path id="Path_53" class="st37" d="M-59.5,290.4h234.4l-34.7,116.3H-24.7L-59.5,290.4z"/>
			<path id="Path_54" class="st38" d="M-21.3,406.7h159.7l-1.7,8.7H-19.5L-21.3,406.7z"/>
			<path id="Path_55" class="st39" d="M1.3,407.6h111.8l-1.2,6.1H2.5L1.3,407.6z"/>
			<path id="Path_56" class="st40" d="M2.8,413.7l9.1-5.8h93.4l6.2,5.8H2.8z"/>
			<rect id="Rectangle_11" x="-59.5" y="283.4" class="st41" width="234.4" height="6.9"/>
			<ellipse id="Ellipse_214" class="st42" cx="60.3" cy="353.8" rx="22.6" ry="16.5"/>
		</g>
		<text transform="matrix(0.9563 -0.2924 0.2924 0.9563 97.3516 196.9078)" class="st2 st3 st43">&lt;div class=“smallCard”&gt;</text>
		<text transform="matrix(0.9563 -0.2924 0.2924 0.9563 111.9703 244.723)" class="st2 st3 st43">    &lt;p&gt;Code and design work beautifully together&lt;/p&gt;</text>
		<text transform="matrix(0.9563 -0.2924 0.2924 0.9563 126.5889 292.5382)" class="st2 st3 st43">&lt;/div&gt;</text>
		<text transform="matrix(0.9563 -0.2924 0.2924 0.9563 8.6556 119.9979)" class="st2 st3 st43">53</text>
		<text transform="matrix(0.9563 -0.2924 0.2924 0.9563 23.2742 167.8131)" class="st2 st3 st43">54</text>
		<text transform="matrix(0.9563 -0.2924 0.2924 0.9563 37.8926 215.6283)" class="st2 st3 st43">55</text>
		<text transform="matrix(0.9563 -0.2924 0.2924 0.9563 52.5113 263.4435)" class="st2 st3 st43">56</text>
		<text transform="matrix(0.9563 -0.2924 0.2924 0.9563 67.1299 311.2589)" class="st2 st3 st43">57</text>
		<text transform="matrix(0.9563 -0.2924 0.2924 0.9563 81.7486 359.0741)" class="st2 st3 st43">58</text>
		<text transform="matrix(0.9563 -0.2924 0.2924 0.9563 96.367 406.8893)" class="st2 st3 st43">59</text>
		<text transform="matrix(0.9563 -0.2924 0.2924 0.9563 110.9857 454.7044)" class="st2 st3 st43">60</text>
		<text transform="matrix(0.9563 -0.2924 0.2924 0.9563 125.6043 502.5196)" class="st2 st3 st43">61</text>
	</g>
</g>
</svg>
