<?xml version="1.0" encoding="UTF-8"?>
<svg width="351px" height="251px" viewBox="0 0 351 251" version="1.1" xmlns="http://www.w3.org/2000/svg" xmlns:xlink="http://www.w3.org/1999/xlink">
    <!-- Generator: Sketch 60.1 (88133) - https://sketch.com -->
    <title>Group</title>
    <desc>Created with Sketch.</desc>
    <g id="Page-1" stroke="none" stroke-width="1" fill="none" fill-rule="evenodd">
        <g id="Artboard" transform="translate(-8.000000, -53.000000)">
            <g id="Group" transform="translate(10.566166, 55.000000)">
                <path d="M269.052476,13 C308.050948,13 336.508021,36.8008558 336.508021,69.3042838 C336.508021,88.9628562 325.501604,106.647715 308.704489,116.833711 C329.429106,126.661427 342.433834,146.345142 342.433834,170.353428 C342.433834,205.64325 312.291963,232.45913 272.297167,232.991918 L271.082209,233 L130.433834,233 C148.120974,216.745648 159.209676,203.621725 163.69994,193.62823 C168.128694,183.771632 170.137816,168.059552 169.727307,146.491989 L169.708802,145.589951 L169.707834,95.762 L217.109834,13 L269.052476,13 Z M260.804733,143.23057 L227.889169,143.23057 L227.889169,183.239142 L260.804733,183.239142 C273.925713,183.239142 282.503367,175.011135 282.503367,163.143708 C282.503367,151.458568 273.925713,143.23057 260.804733,143.23057 Z M258.514219,98.4951425 C271.185895,98.4951425 279.003187,90.7605709 279.000043,79.3425703 C279.000043,67.9245697 271.18275,60.1899981 258.511074,60.1899981 L235.747303,60.1899981 L235.475834,61.512 L216.511794,98.4951425 L258.514219,98.4951425 Z" id="Combined-Shape" fill="#595959" fill-rule="nonzero"></path>
                <path d="M228.129652,143 L227.993844,183.111333 C234.515925,183.111333 240.854644,183.111333 247.010001,183.111333 C264.635919,183.111333 267.822396,184.056136 276.286392,177.945066 C276.286392,177.945066 286.002206,193.873049 305.433834,225.729015 C300.688813,228.337765 296.789173,230.049037 293.734914,230.862832 C290.680654,231.676627 286.428557,232.389017 280.978622,233 L120.433834,233 L228.129652,143 Z" id="Path-19" fill="#4A4A4A"></path>
                <path d="M122.626626,13 C153.278795,13 180.030938,24.5370289 199.036712,44.1327941 L169.31827,95.8152315 C161.251395,76.9241528 143.164987,66.9020969 122.750977,66.9020969 C93.4041304,66.9020969 71.8795567,90.7449028 71.8795567,123.170522 C71.8795567,155.470495 93.4041304,178.969272 122.750977,178.969272 C145.747038,178.969272 163.2302,166.501985 169.03621,143.23057 L169.03621,143.23057 L227.433834,143.23057 C219.555306,198.293393 177.829609,232.997015 122.626626,233 C59.5451157,233 12.4338335,185.81398 12.4338335,123.173512 C12.4338335,60.1860203 59.5451157,13 122.626626,13 Z" id="Combined-Shape" fill="#4BAC5E" fill-rule="nonzero"></path>
                <path d="M330.433834,25 C336.823338,30.7032126 340.971331,36.7931903 345.433834,48" id="Path-17" stroke="#B2DEBB" stroke-width="6" stroke-linecap="round"></path>
                <path d="M262.433834,2 C290.315918,2.78174268 305.241741,5.74762558 321.433834,17" id="Path-17" stroke="#81C58E" stroke-width="6" stroke-linecap="round"></path>
                <path d="M227.433834,1.96654114 C235.914143,1.96654114 243.530918,1.96654114 250.433834,2.03345886" id="Path-17" stroke="#73C884" stroke-width="6" stroke-linecap="round"></path>
                <path d="M1.45968459,123.489616 C1.38449619,127.767405 1.42754214,131.80257 1.57657976,135.615153" id="Path-11" stroke="#CEEAD3" stroke-width="6" stroke-linecap="round" transform="translate(1.500000, 129.552385) rotate(-1.000000) translate(-1.500000, -129.552385) "></path>
                <path d="M3.17024126,147.456909 C5.60323835,169.346987 12.0021172,182.63574 18.9175296,192.969291" id="Path-11" stroke="#B2DEBB" stroke-width="6" stroke-linecap="round" transform="translate(11.043885, 170.213100) rotate(-1.000000) translate(-11.043885, -170.213100) "></path>
                <path d="M26.7623246,201.880513 C40.0078937,219.197665 55.7448974,230.179008 73.2841931,236.964175" id="Path-11" stroke="#81C58E" stroke-width="6" stroke-linecap="round" transform="translate(50.023259, 219.422344) rotate(-1.000000) translate(-50.023259, -219.422344) "></path>
                <path d="M84.3160572,238.7089 C99.7357545,243.116075 116.348007,244.822451 133.735451,245.123853 C156.886093,245.525157 185.641702,246.506133 223.013553,246.329658" id="Path-11" stroke="#73C884" stroke-width="6" stroke-linecap="round" transform="translate(153.664805, 242.529791) rotate(-1.000000) translate(-153.664805, -242.529791) "></path>
                <polygon id="Path-9" fill="#4A4A4A" points="199.291744 44 222.685704 85.9989796 216.202428 98.4205092 229.683821 98.4205092 254.433834 143 228.429556 143 169.087306 143.23057 169.087306 94.8043743"></polygon>
            </g>
        </g>
    </g>
</svg>