<svg xmlns="http://www.w3.org/2000/svg" width="92.144" height="147.012" viewBox="0 0 92.144 147.012">
  <g id="Group_5" data-name="Group 5" transform="translate(-1808.497 -54.415)" opacity="0.774">
    <ellipse id="Ellipse_66" data-name="Ellipse 66" cx="4.776" cy="4.776" rx="4.776" ry="4.776" transform="translate(1815.225 126.539) rotate(-25)" fill="#d5d5d5" opacity="0.545"/>
    <ellipse id="Ellipse_67" data-name="Ellipse 67" cx="4.776" cy="4.776" rx="4.776" ry="4.776" transform="translate(1832.54 118.465) rotate(-25)" fill="#d5d5d5" opacity="0.545"/>
    <ellipse id="Ellipse_68" data-name="Ellipse 68" cx="4.776" cy="4.776" rx="4.776" ry="4.776" transform="translate(1849.855 110.391) rotate(-25)" fill="#d5d5d5" opacity="0.545"/>
    <ellipse id="Ellipse_69" data-name="Ellipse 69" cx="4.776" cy="4.776" rx="4.776" ry="4.776" transform="translate(1867.17 102.316) rotate(-25)" fill="#d5d5d5" opacity="0.545"/>
    <ellipse id="Ellipse_70" data-name="Ellipse 70" cx="4.776" cy="4.776" rx="4.776" ry="4.776" transform="translate(1884.485 94.242) rotate(-25)" fill="#d5d5d5" opacity="0.545"/>
    <ellipse id="Ellipse_71" data-name="Ellipse 71" cx="4.776" cy="4.776" rx="4.776" ry="4.776" transform="translate(1808.497 112.11) rotate(-25)" fill="#d5d5d5" opacity="0.545"/>
    <ellipse id="Ellipse_72" data-name="Ellipse 72" cx="4.776" cy="4.776" rx="4.776" ry="4.776" transform="translate(1825.812 104.035) rotate(-25)" fill="#d5d5d5" opacity="0.545"/>
    <ellipse id="Ellipse_73" data-name="Ellipse 73" cx="4.776" cy="4.776" rx="4.776" ry="4.776" transform="translate(1843.127 95.961) rotate(-25)" fill="#d5d5d5" opacity="0.545"/>
    <ellipse id="Ellipse_74" data-name="Ellipse 74" cx="4.776" cy="4.776" rx="4.776" ry="4.776" transform="translate(1860.442 87.887) rotate(-25)" fill="#d5d5d5" opacity="0.545"/>
    <ellipse id="Ellipse_75" data-name="Ellipse 75" cx="4.776" cy="4.776" rx="4.776" ry="4.776" transform="translate(1877.757 79.813) rotate(-25)" fill="#d5d5d5" opacity="0.545"/>
    <ellipse id="Ellipse_77" data-name="Ellipse 77" cx="4.776" cy="4.776" rx="4.776" ry="4.776" transform="translate(1818.814 89.029) rotate(-25)" fill="#d5d5d5" opacity="0.545"/>
    <ellipse id="Ellipse_78" data-name="Ellipse 78" cx="4.776" cy="4.776" rx="4.776" ry="4.776" transform="translate(1836.129 80.955) rotate(-25)" fill="#d5d5d5" opacity="0.545"/>
    <ellipse id="Ellipse_79" data-name="Ellipse 79" cx="4.776" cy="4.776" rx="4.776" ry="4.776" transform="translate(1853.444 72.881) rotate(-25)" fill="#d5d5d5" opacity="0.545"/>
    <ellipse id="Ellipse_80" data-name="Ellipse 80" cx="4.776" cy="4.776" rx="4.776" ry="4.776" transform="translate(1870.759 64.807) rotate(-25)" fill="#d5d5d5" opacity="0.545"/>
    <ellipse id="Ellipse_83" data-name="Ellipse 83" cx="4.776" cy="4.776" rx="4.776" ry="4.776" transform="translate(1829.401 66.526) rotate(-25)" fill="#d5d5d5" opacity="0.545"/>
    <ellipse id="Ellipse_84" data-name="Ellipse 84" cx="4.776" cy="4.776" rx="4.776" ry="4.776" transform="translate(1846.716 58.452) rotate(-25)" fill="#d5d5d5" opacity="0.545"/>
    <ellipse id="Ellipse_86" data-name="Ellipse 86" cx="4.776" cy="4.776" rx="4.776" ry="4.776" transform="translate(1825.415 192.769) rotate(-25)" fill="#d5d5d5" opacity="0.545"/>
    <ellipse id="Ellipse_87" data-name="Ellipse 87" cx="4.776" cy="4.776" rx="4.776" ry="4.776" transform="translate(1842.729 184.695) rotate(-25)" fill="#d5d5d5" opacity="0.545"/>
    <ellipse id="Ellipse_88" data-name="Ellipse 88" cx="4.776" cy="4.776" rx="4.776" ry="4.776" transform="translate(1860.044 176.621) rotate(-25)" fill="#d5d5d5" opacity="0.545"/>
    <ellipse id="Ellipse_89" data-name="Ellipse 89" cx="4.776" cy="4.776" rx="4.776" ry="4.776" transform="translate(1877.359 168.547) rotate(-25)" fill="#d5d5d5" opacity="0.545"/>
    <ellipse id="Ellipse_91" data-name="Ellipse 91" cx="4.776" cy="4.776" rx="4.776" ry="4.776" transform="translate(1818.686 178.34) rotate(-25)" fill="#d5d5d5" opacity="0.545"/>
    <ellipse id="Ellipse_92" data-name="Ellipse 92" cx="4.776" cy="4.776" rx="4.776" ry="4.776" transform="translate(1836.001 170.266) rotate(-25)" fill="#d5d5d5" opacity="0.545"/>
    <ellipse id="Ellipse_93" data-name="Ellipse 93" cx="4.776" cy="4.776" rx="4.776" ry="4.776" transform="translate(1853.316 162.192) rotate(-25)" fill="#d5d5d5" opacity="0.545"/>
    <ellipse id="Ellipse_94" data-name="Ellipse 94" cx="4.776" cy="4.776" rx="4.776" ry="4.776" transform="translate(1870.631 154.118) rotate(-25)" fill="#d5d5d5" opacity="0.545"/>
    <ellipse id="Ellipse_95" data-name="Ellipse 95" cx="4.776" cy="4.776" rx="4.776" ry="4.776" transform="translate(1887.946 146.044) rotate(-25)" fill="#d5d5d5" opacity="0.545"/>
    <ellipse id="Ellipse_97" data-name="Ellipse 97" cx="4.776" cy="4.776" rx="4.776" ry="4.776" transform="translate(1829.003 155.26) rotate(-25)" fill="#d5d5d5" opacity="0.545"/>
    <ellipse id="Ellipse_98" data-name="Ellipse 98" cx="4.776" cy="4.776" rx="4.776" ry="4.776" transform="translate(1846.318 147.186) rotate(-25)" fill="#d5d5d5" opacity="0.545"/>
    <ellipse id="Ellipse_99" data-name="Ellipse 99" cx="4.776" cy="4.776" rx="4.776" ry="4.776" transform="translate(1863.633 139.112) rotate(-25)" fill="#d5d5d5" opacity="0.545"/>
    <ellipse id="Ellipse_100" data-name="Ellipse 100" cx="4.776" cy="4.776" rx="4.776" ry="4.776" transform="translate(1880.948 131.037) rotate(-25)" fill="#d5d5d5" opacity="0.545"/>
    <ellipse id="Ellipse_102" data-name="Ellipse 102" cx="4.776" cy="4.776" rx="4.776" ry="4.776" transform="translate(1822.275 140.831) rotate(-25)" fill="#d5d5d5" opacity="0.545"/>
    <ellipse id="Ellipse_103" data-name="Ellipse 103" cx="4.776" cy="4.776" rx="4.776" ry="4.776" transform="translate(1839.59 132.756) rotate(-25)" fill="#d5d5d5" opacity="0.545"/>
    <ellipse id="Ellipse_104" data-name="Ellipse 104" cx="4.776" cy="4.776" rx="4.776" ry="4.776" transform="translate(1856.905 124.682) rotate(-25)" fill="#d5d5d5" opacity="0.545"/>
    <ellipse id="Ellipse_105" data-name="Ellipse 105" cx="4.776" cy="4.776" rx="4.776" ry="4.776" transform="translate(1874.22 116.608) rotate(-25)" fill="#d5d5d5" opacity="0.545"/>
  </g>
</svg>
